<svg width="16" height="16" viewBox="0 0 16 16" fill="none" xmlns="http://www.w3.org/2000/svg">
<g id="Symbol=instagram" clip-path="url(#clip0_5271_868)">
<path id="Vector" d="M4.68677 0.0553719C3.83556 0.0955323 3.25412 0.231854 2.74611 0.430896C2.22019 0.635858 1.77442 0.910741 1.3309 1.35603C0.886893 1.80163 0.61425 2.2482 0.410728 2.7746C0.213766 3.28389 0.0801646 3.86565 0.0427242 4.71734C0.00528378 5.57079 -0.00319631 5.84295 0.00096373 8.01546C0.00512377 10.1876 0.0147239 10.4603 0.0553643 11.3139C0.0960047 12.1649 0.231846 12.7461 0.430888 13.2544C0.636171 13.7803 0.910733 14.2259 1.35618 14.6696C1.80146 15.1133 2.24835 15.3858 2.77507 15.5895C3.28388 15.7863 3.8658 15.9202 4.71733 15.9575C5.57062 15.9951 5.84311 16.0034 8.01497 15.9992C10.1878 15.9951 10.4603 15.9855 11.3136 15.945C12.1648 15.9043 12.7456 15.768 13.2542 15.5695C13.7802 15.3637 14.2259 15.0896 14.6694 14.6442C15.113 14.1989 15.3856 13.752 15.5891 13.2253C15.7861 12.7165 15.9202 12.1345 15.9571 11.2835C15.9944 10.4297 16.0032 10.1569 15.9991 7.9849C15.9949 5.81255 15.9851 5.54039 15.9447 4.68726C15.9042 3.83557 15.7679 3.25461 15.5691 2.74612C15.3635 2.2202 15.0893 1.77491 14.644 1.33091C14.1987 0.887381 13.7518 0.614258 13.2251 0.411216C12.716 0.214254 12.1344 0.0800122 11.2828 0.0432118C10.4297 0.00513137 10.1574 -0.00318872 7.98473 0.000971327C5.81255 0.00513137 5.54022 0.0144115 4.68693 0.0553719M4.78021 14.5176C4.00021 14.4837 3.57668 14.3541 3.29444 14.2454C2.92067 14.1008 2.65395 13.9274 2.37315 13.6488C2.09299 13.3691 1.91906 13.1032 1.77314 12.7302C1.66354 12.448 1.53154 12.0249 1.49506 11.2449C1.45538 10.4017 1.44626 10.1488 1.44242 8.01258C1.43826 5.87703 1.4461 5.62391 1.4829 4.78006C1.51634 4.00069 1.64674 3.57653 1.75506 3.29461C1.8997 2.92036 2.07251 2.65412 2.35171 2.37332C2.63139 2.09267 2.89731 1.91923 3.2706 1.77331C3.55268 1.66307 3.97557 1.53219 4.75525 1.49523C5.59894 1.45523 5.85175 1.44675 7.98729 1.44259C10.1233 1.43843 10.3764 1.44595 11.2203 1.48307C11.9997 1.51699 12.4238 1.64611 12.7056 1.75523C13.0797 1.89987 13.3464 2.07219 13.6269 2.35188C13.9074 2.63156 14.0813 2.897 14.2272 3.27109C14.3373 3.55237 14.4683 3.97589 14.5051 4.75526C14.5453 5.59895 14.5544 5.85191 14.5582 7.98762C14.5624 10.1238 14.5546 10.3768 14.5176 11.2201C14.4837 12.0001 14.3542 12.4238 14.2454 12.7064C14.1008 13.0798 13.9278 13.3466 13.6485 13.6274C13.3691 13.907 13.1032 14.0814 12.7296 14.2274C12.4481 14.3373 12.0246 14.4685 11.2454 14.5054C10.4017 14.5451 10.1489 14.5542 8.01257 14.5581C5.87703 14.5622 5.62422 14.5542 4.78037 14.5176M11.3019 3.72373C11.3028 4.2535 11.7337 4.68246 12.2635 4.6815C12.7936 4.68054 13.2225 4.24998 13.2217 3.72005C13.2206 3.19029 12.7899 2.761 12.2598 2.76196C11.7297 2.76292 11.3008 3.19381 11.3017 3.72357M3.89237 8.00794C3.89669 10.2768 5.73943 12.112 8.00777 12.1075C10.2763 12.103 12.1125 10.2609 12.1081 7.9921C12.1037 5.72407 10.2608 3.88789 7.99193 3.89221C5.72358 3.89669 3.88789 5.73959 3.89237 8.00794ZM5.33334 8.00506C5.33078 6.53256 6.52263 5.33623 7.99481 5.33367C9.46731 5.33079 10.6638 6.52216 10.6667 7.99498C10.6696 9.46779 9.47771 10.6638 8.00489 10.6667C6.53255 10.6696 5.33606 9.47803 5.33334 8.00522" fill="#121212"/>
</g>
<defs>
<clipPath id="clip0_5271_868">
<rect width="16" height="16.0002" fill="white"/>
</clipPath>
</defs>
</svg>
