<svg width="24" height="24" viewBox="0 0 24 24" fill="none" xmlns="http://www.w3.org/2000/svg">
<g id="Icon">
<path id="Vector" fill-rule="evenodd" clip-rule="evenodd" d="M1.27539 12.0007C1.27539 6.07738 6.07714 1.27557 12.0004 1.27557C17.9236 1.27557 22.7254 6.07738 22.7254 12.0007C22.7254 17.924 17.9236 22.7258 12.0004 22.7258C6.07714 22.7258 1.27539 17.924 1.27539 12.0007ZM9.84924 3.4912C6.34885 4.37334 3.68468 7.35865 3.27904 11.0248H7.32314C7.53579 8.32531 8.40747 5.73402 9.84924 3.4912ZM14.1515 3.4912C15.5933 5.73401 16.465 8.32531 16.6776 11.0248H20.7217C20.3161 7.35865 17.6519 4.37334 14.1515 3.4912ZM14.7208 11.0248C14.4856 8.3935 13.5407 5.89178 12.0004 3.80462C10.4601 5.89178 9.51517 8.3935 9.27998 11.0248H14.7208ZM9.27969 12.9748H14.7211C14.4864 15.6074 13.5413 18.1103 12.0004 20.1983C10.4594 18.1103 9.51438 15.6074 9.27969 12.9748ZM7.32288 12.9748H3.27885C3.68379 16.6414 6.34769 19.6273 9.84806 20.5099C8.40641 18.2666 7.53502 15.6748 7.32288 12.9748ZM14.1527 20.5099C15.5944 18.2666 16.4658 15.6748 16.6779 12.9748H20.7219C20.317 16.6414 17.6531 19.6273 14.1527 20.5099Z" fill="#121212"/>
</g>
</svg>
