<svg width="16" height="16" viewBox="0 0 16 16" fill="none" xmlns="http://www.w3.org/2000/svg">
<g id="Symbol=linkedin" clip-path="url(#clip0_5271_856)">
<g id="Vector">
<path d="M3.51076 16.0029H0.0899556V4.87463H3.51076V16.0029Z" fill="#121212"/>
<path d="M1.77742 3.46005C2.92533 3.46005 3.62293 2.68555 3.62293 1.73005C3.60071 0.751352 2.92533 0 1.82258 0C0.720178 0 0 0.751352 0 1.73005C0 2.68555 0.6976 3.46005 1.77742 3.46005Z" fill="#121212"/>
<path d="M5.46805 4.87458C5.51285 5.8761 5.55765 7.03655 5.55765 8.4246V16.0028H8.97845V9.58541C8.97845 9.26684 9.00103 8.94792 9.09134 8.72051C9.33899 8.08338 9.90112 7.42361 10.8462 7.42361C12.0841 7.42361 12.5792 8.40177 12.5792 9.83565V16.0028H16V9.42577C16 6.149 14.3121 4.62397 12.0618 4.62397C10.2163 4.62397 9.11356 5.69363 8.66361 6.42208H8.59623L8.43819 4.87458H5.46805Z" fill="#121212"/>
</g>
</g>
<defs>
<clipPath id="clip0_5271_856">
<rect width="16" height="16.0029" fill="white"/>
</clipPath>
</defs>
</svg>
