<svg xmlns="http://www.w3.org/2000/svg" width="16" height="16" fill="none" viewBox="0 0 16 16"><g clip-path="url(#a)"><path fill="#121212" fill-rule="evenodd" d="M11.234 12.195c2.042-.24 3.82-1.475 4.043-2.603.352-1.778.323-4.339.323-4.339 0-3.47-2.316-4.488-2.316-4.488C12.116.238 10.11.017 8.028 0h-.052C5.893.017 3.89.238 2.721.765c0 0-2.316 1.017-2.316 4.488 0 .21 0 .432-.002.662-.003.64-.007 1.35.012 2.091.084 3.394.634 6.74 3.83 7.57 1.474.383 2.74.463 3.758.408 1.848-.1 2.886-.647 2.886-.647l-.061-1.317s-1.321.41-2.804.36c-1.47-.05-3.02-.156-3.258-1.928a3.569 3.569 0 0 1-.033-.496s1.442.346 3.27.428c1.118.05 2.166-.064 3.23-.189Zm1.634-2.47V5.522c0-.859-.223-1.541-.67-2.046-.462-.505-1.066-.764-1.816-.764-.868 0-1.525.327-1.96.983L8 4.39l-.422-.695c-.434-.656-1.092-.983-1.96-.983-.75 0-1.354.259-1.815.764-.447.505-.67 1.187-.67 2.046v4.203h1.696v-4.08c0-.859.368-1.295 1.105-1.295.815 0 1.224.517 1.224 1.541v2.233h1.685V5.89c0-1.024.409-1.541 1.224-1.541.737 0 1.105.436 1.105 1.296v4.079h1.696Z" clip-rule="evenodd"/></g><defs><clipPath id="a"><path fill="#fff" d="M0 0h16v16H0z"/></clipPath></defs></svg>
