<svg width="16" height="16" viewBox="0 0 16 16" fill="none" xmlns="http://www.w3.org/2000/svg">
<g id="Symbol=youtube">
<path id="Vector" fill-rule="evenodd" clip-rule="evenodd" d="M12.7726 11.8719H12.061V11.4239C12.061 11.1678 12.14 10.9918 12.4248 10.9918C12.6936 10.9918 12.7726 11.1839 12.7726 11.4239V11.8719ZM13.6107 12.9759H12.7726C12.7726 13.3119 12.8831 13.8239 12.4089 13.8239C12.061 13.8239 12.061 13.536 12.061 13.264V12.4959H13.6107V11.472C13.6107 10.7359 13.1995 10.2719 12.4562 10.2719C11.7446 10.2719 11.2069 10.7359 11.2069 11.472V13.2799C11.2069 14.0319 11.6182 14.5439 12.3929 14.5439C13.2154 14.5439 13.6107 14.0959 13.6107 13.2799V12.9759ZM12.8515 6.784H11.8393V6.22388C11.539 6.544 11.1279 6.84802 10.6692 6.84802C10.1316 6.84802 9.95752 6.43205 9.95752 5.95205V1.77603H10.9697V5.61601C10.9697 5.80791 11.0172 5.95205 11.2387 5.95205C11.4282 5.95205 11.7129 5.71187 11.8393 5.56809V1.77603H12.8515V6.784ZM9.75212 13.504C9.75212 13.712 9.68866 13.84 9.46736 13.84C9.27751 13.84 9.1985 13.7919 9.07212 13.664V11.136C9.16686 11.04 9.27751 10.9759 9.41999 10.9759C9.67275 10.9759 9.75212 11.136 9.75212 11.376V13.504ZM10.5901 11.344C10.5901 10.8159 10.4003 10.3359 9.79949 10.3359C9.51473 10.3359 9.2616 10.4959 9.07212 10.7039V8.94399H8.24964V14.432H9.07212V14.112C9.30915 14.3679 9.499 14.4799 9.84686 14.4799C10.4003 14.4799 10.5901 14.0959 10.5901 13.5839V11.344ZM8.07571 2.87999C8.07571 2.65591 7.83832 2.51194 7.63292 2.51194C7.42735 2.51194 7.22177 2.65591 7.22177 2.87999V5.61601C7.22177 5.87193 7.3798 6.03199 7.63292 6.03199C7.90178 6.03199 8.07571 5.90394 8.07571 5.61601V2.87999ZM9.10376 5.53589C9.10376 6.46406 8.50259 6.91187 7.63292 6.91187C6.79489 6.91187 6.17799 6.40004 6.17799 5.51998V2.92792C6.17799 2.04804 6.88964 1.64798 7.68029 1.64798C8.43949 1.64798 9.10376 2.12798 9.10376 2.94401V5.53589ZM7.44308 14.432V10.384H6.63651V13.4559C6.52604 13.5839 6.33602 13.7599 6.14635 13.7599C5.97224 13.7599 5.9406 13.6318 5.9406 13.4881V10.384H5.11848V13.7919C5.11848 14.1599 5.2765 14.496 5.68765 14.496C6.01979 14.496 6.41521 14.224 6.63651 13.984V14.432H7.44308ZM6.22536 0L5.3557 2.63999C5.18158 3.16792 5.02356 3.43993 4.91273 3.96803C4.89682 4.0959 4.91273 6.51199 4.91273 6.784H3.77403C3.77403 6.5279 3.78994 4.19194 3.77403 4.0959C3.66355 3.55206 3.50535 3.26395 3.31569 2.73603L2.4142 0H3.56863L4.29601 2.70401H4.37502L5.07093 0H6.22536ZM5.13421 9.74393V8.94399H2.30355V9.74393H3.25223V14.432H4.16944V9.74393H5.13421ZM14.6385 14.144C14.5595 15.2319 13.7215 15.872 12.6936 15.9199C11.1279 16 9.56228 16 7.99652 16C6.43094 16 4.84963 16 3.29978 15.9199C2.27173 15.872 1.43352 15.2319 1.35469 14.144C1.30714 13.3759 1.25977 12.5919 1.25977 11.824C1.25977 11.0559 1.30714 10.2719 1.35469 9.50393C1.43352 8.41588 2.27173 7.77601 3.29978 7.7279C4.84963 7.64796 6.43094 7.64796 7.99652 7.64796C9.56228 7.64796 11.1438 7.64796 12.6936 7.7279C13.7215 7.77601 14.5595 8.41588 14.6385 9.50393C14.6861 10.2719 14.7334 11.0559 14.7334 11.824C14.7334 12.5919 14.6861 13.3759 14.6385 14.144Z" fill="#121212"/>
</g>
</svg>
