<svg
	xmlns="http://www.w3.org/2000/svg"
	width="582"
	height="148"
	fill="none"
	viewBox="0 0 582 148"
>
	<rect width="582" height="148" fill="#141d50" rx="74" />
	<g fill="#fff">
		<path
			fill-rule="evenodd"
			d="M510.716 78.954h-.382l-3.062-4.592-21.585-32.375 5.122-7.685a1.148 1.148 0 1 0-1.912-1.273l-4.592 6.888-3.212-4.818 5.122-7.685a1.15 1.15 0 0 0-1.912-1.273l-4.593 6.888-3.212-4.818 5.124-7.685a1.147 1.147 0 1 0-1.912-1.273l-4.593 6.888-4.592-6.888a1.15 1.15 0 0 0-1.912 1.273l5.125 7.685-30.773 46.153-3.062 4.592h-.382a1.147 1.147 0 1 0 0 2.296h71.193a1.147 1.147 0 1 0 0-2.296zm-61.625 0h-6.425l2.201-3.301.012-.018 30.241-45.358 3.212 4.82-29.239 43.857zm9.187 0h-6.427l17.462-26.192 10.397-15.595 3.213 4.82-24.647 36.967zm16.842 0h-14.082l12.87-19.304 10.397-15.595 21.056 31.58.011.017 2.201 3.302z"
			clip-rule="evenodd"
		/>
		<path
			d="M431.291 109.942q-.326.326-.718.7-.392.376-.862.7a5 5 0 0 1-1.016.537 3.2 3.2 0 0 1-1.172.213q-1.642-.001-3.024-.617a7.3 7.3 0 0 1-2.379-1.683 7.8 7.8 0 0 1-1.559-2.518 8.5 8.5 0 0 1-.561-3.115q0-1.679.561-3.121a7.8 7.8 0 0 1 1.559-2.512 7.1 7.1 0 0 1 2.379-1.678q1.384-.61 3.024-.61.664 0 1.214.192.55.193 1.001.496.453.3.833.681.382.381.718.744v-5.518q.001-.387.236-.653.236-.265.706-.265h2.717q.158 0 .331.066c.115.043.224.107.319.186a1 1 0 0 1 .236.29q.09.168.091.374v18.051q0 .93-.977.93h-2.368a.95.95 0 0 1-.375-.06.6.6 0 0 1-.224-.174 1.2 1.2 0 0 1-.162-.289 9 9 0 0 0-.181-.405l-.351-.942zm-6.942-5.783q0 .798.248 1.49.246.693.706 1.202a3.35 3.35 0 0 0 2.536 1.099 3.8 3.8 0 0 0 2.645-1.045c.339-.328.611-.71.815-1.154q.308-.664.345-1.426v-.168q0-.773-.289-1.473a3.82 3.82 0 0 0-2.011-2.071 3.65 3.65 0 0 0-1.503-.307q-.785 0-1.432.307a3.4 3.4 0 0 0-1.105.839 3.8 3.8 0 0 0-.705 1.232 4.4 4.4 0 0 0-.248 1.473zm27.641 5.819a8 8 0 0 1-2.392 1.527 7.3 7.3 0 0 1-2.814.549 8.2 8.2 0 0 1-3.127-.603 8.2 8.2 0 0 1-2.584-1.671 8 8 0 0 1-1.763-2.518 7.6 7.6 0 0 1-.652-3.151q0-1.062.26-2.058a8 8 0 0 1 .736-1.866 7.9 7.9 0 0 1 1.16-1.6 7.3 7.3 0 0 1 1.526-1.25 7.428 7.428 0 0 1 3.925-1.098q1.003.001 1.943.266a7.577 7.577 0 0 1 3.284 1.91q.687.675 1.184 1.479a7.2 7.2 0 0 1 .767 1.715 6.5 6.5 0 0 1 .272 1.877q0 .629-.018 1.028-.019.398-.186.634-.17.235-.562.325t-1.154.091h-8.693q.121.773.49 1.293t.85.827q.483.308 1.028.44a4.3 4.3 0 0 0 1.027.133q.433 0 .894-.091.458-.09.889-.242.428-.151.785-.351.356-.2.573-.416a3 3 0 0 1 .331-.237.6.6 0 0 1 .296-.079q.158 0 .319.109.163.11.369.313l1.279 1.45a.8.8 0 0 1 .168.283 1 1 0 0 1 .036.26q0 .24-.133.417a1.5 1.5 0 0 1-.313.307zm-5.808-10.059a2.3 2.3 0 0 0-.913.187 3.5 3.5 0 0 0-.827.501 4.4 4.4 0 0 0-.694.712 4.3 4.3 0 0 0-.501.809h6.171a7 7 0 0 0-.549-.868 3.7 3.7 0 0 0-.677-.7 2.9 2.9 0 0 0-.868-.47 3.5 3.5 0 0 0-1.14-.169zm10.372-3.295a.75.75 0 0 1 .326-.168q.17-.036.325-.036h1.825q.228 0 .38.073.152.074.248.198c.063.086.119.18.163.29q.066.164.127.357l.507 1.461q.339-.434.682-.888.345-.452.815-.82a4.2 4.2 0 0 1 1.123-.611q.651-.242 1.594-.242 1.654 0 3.05.61t2.403 1.678a7.7 7.7 0 0 1 1.577 2.512q.568 1.442.567 3.121a8.4 8.4 0 0 1-.567 3.115 7.8 7.8 0 0 1-1.577 2.518 7.4 7.4 0 0 1-2.403 1.683q-1.395.616-3.05.617-.784 0-1.352-.187a4 4 0 0 1-1.008-.489 4.7 4.7 0 0 1-.779-.665q-.338-.363-.665-.724v5.627a.92.92 0 0 1-.218.617q-.216.254-.676.254h-2.764q-.144 0-.313-.06a1.2 1.2 0 0 1-.314-.168 1 1 0 0 1-.242-.272.7.7 0 0 1-.096-.369v-18.34q-.001-.241.091-.398.09-.158.224-.29zm11.28 7.535a4.3 4.3 0 0 0-.254-1.468 3.7 3.7 0 0 0-.712-1.213 3.289 3.289 0 0 0-2.51-1.122c-.514 0-.988.095-1.444.283a3.85 3.85 0 0 0-2.028 1.927 3.6 3.6 0 0 0-.357 1.412v.181q0 .797.301 1.497.302.698.821 1.213.52.514 1.22.815.698.3 1.485.301a3.26 3.26 0 0 0 1.412-.301 3.4 3.4 0 0 0 1.098-.815q.459-.515.712-1.213.254-.7.254-1.497zm6.847-11.314q0-.387.193-.653.193-.265.664-.265h2.959q.12 0 .253.066.134.065.248.186.116.12.193.29a.9.9 0 0 1 .079.374v18.039q0 .459-.26.694-.26.236-.67.236h-2.802q-.47 0-.664-.236-.193-.235-.193-.694V92.843zm7.016 11.314a8 8 0 0 1 1.081-4.039 8 8 0 0 1 1.232-1.594 7.6 7.6 0 0 1 1.6-1.226 8 8 0 0 1 1.901-.785 8.1 8.1 0 0 1 2.132-.277q1.642 0 3.085.61a7.8 7.8 0 0 1 2.513 1.678 8 8 0 0 1 1.692 2.512q.623 1.444.622 3.121a7.97 7.97 0 0 1-1.08 4.032 8 8 0 0 1-1.232 1.601q-.718.72-1.601 1.231a7.909 7.909 0 0 1-3.997 1.069q-1.11 0-2.132-.278a7.8 7.8 0 0 1-1.901-.791 8 8 0 0 1-1.601-1.231 7.933 7.933 0 0 1-2.028-3.502 8 8 0 0 1-.284-2.131zm4.408 0q0 .798.249 1.49.247.693.699 1.202.452.507 1.099.803.646.295 1.455.296c.54 0 .996-.1 1.42-.296a3.2 3.2 0 0 0 1.075-.803q.44-.507.676-1.202.236-.692.236-1.49c0-.532-.079-1.006-.236-1.474a3.8 3.8 0 0 0-.676-1.231 3.2 3.2 0 0 0-1.075-.839 3.2 3.2 0 0 0-1.42-.307q-.81 0-1.455.307a3.3 3.3 0 0 0-1.099.839 3.9 3.9 0 0 0-.699 1.231 4.4 4.4 0 0 0-.249 1.474m14.044 4.177q0-.24.133-.386.134-.146.398-.145h3.189a.58.58 0 0 1 .381.145.48.48 0 0 1 .174.386v2.923a.6.6 0 0 1-.138.387q-.141.169-.417.168h-3.189q-.532 0-.531-.555zm7.172-10.915q.001-.387.218-.664.218-.276.677-.277h2.764q.145-.001.313.065.17.066.314.192.143.125.248.295a.73.73 0 0 1 .103.387v13.463q-.001.459-.254.694-.253.236-.724.236h-2.764q-.894 0-.895-.93V97.419zm0-6.109q.001-.507.218-.717.218-.212.677-.213h2.802q.422 0 .682.213.259.21.26.717v2.354q0 .145-.066.313a1.3 1.3 0 0 1-.186.325 1 1 0 0 1-.296.26.75.75 0 0 1-.392.103h-2.802q-.894 0-.895-1.001v-2.354zm7.064 12.847a8 8 0 0 1 1.08-4.039 8 8 0 0 1 1.232-1.594 7.6 7.6 0 0 1 1.6-1.226 8 8 0 0 1 4.034-1.062q1.641 0 3.085.61a7.8 7.8 0 0 1 2.513 1.678 8 8 0 0 1 1.691 2.512 7.8 7.8 0 0 1 .623 3.121 7.97 7.97 0 0 1-1.081 4.032 8 8 0 0 1-1.231 1.601c-.48.48-1.011.89-1.601 1.231a7.909 7.909 0 0 1-3.997 1.069q-1.111 0-2.132-.278a7.8 7.8 0 0 1-3.502-2.022 7.7 7.7 0 0 1-1.231-1.601 8 8 0 0 1-1.081-4.032zm4.408 0q0 .798.248 1.49.247.693.7 1.202.452.507 1.098.803.647.295 1.456.296c.54 0 .996-.1 1.42-.296a3.2 3.2 0 0 0 1.075-.803q.44-.507.676-1.202.236-.694.236-1.49c0-.532-.079-1.006-.236-1.474a3.8 3.8 0 0 0-.676-1.231 3.2 3.2 0 0 0-1.075-.839 3.2 3.2 0 0 0-1.42-.307q-.809 0-1.456.307-.646.31-1.098.839a3.9 3.9 0 0 0-.7 1.231 4.4 4.4 0 0 0-.248 1.474"
		/>
	</g>
	<path
		fill="#fff"
		d="M105.816 53.8h7.28V93h-7.28zM85.544 93h-7.28V53.8h7.28zm20.832-16.8H84.928v-6.216h21.448zm30.272 17.192q-4.592 0-8.176-1.96-3.584-2.016-5.656-5.488t-2.072-7.896q0-4.48 2.072-7.896 2.072-3.472 5.656-5.432t8.176-1.96q4.648 0 8.232 1.96 3.64 1.96 5.656 5.376 2.072 3.416 2.072 7.952 0 4.424-2.072 7.896-2.016 3.472-5.656 5.488-3.584 1.96-8.232 1.96m0-5.992q2.576 0 4.592-1.12t3.136-3.248q1.176-2.128 1.176-4.984 0-2.912-1.176-4.984-1.12-2.128-3.136-3.248t-4.536-1.12q-2.576 0-4.592 1.12-1.96 1.12-3.136 3.248-1.176 2.072-1.176 4.984 0 2.856 1.176 4.984t3.136 3.248q2.016 1.12 4.536 1.12m32.174 5.992q-3.753 0-7.224-.952-3.416-1.008-5.432-2.408l2.688-5.32Q160.87 86 163.67 86.84t5.6.84q3.303 0 4.76-.896 1.512-.896 1.512-2.408 0-1.232-1.008-1.848-1.008-.672-2.632-1.008a56 56 0 0 0-3.64-.616 53 53 0 0 1-3.976-.728 15.2 15.2 0 0 1-3.584-1.4 7.7 7.7 0 0 1-2.632-2.52q-1.008-1.568-1.008-4.144 0-2.856 1.624-4.928 1.623-2.128 4.536-3.248 2.968-1.176 7-1.176 3.023 0 6.104.672t5.096 1.904l-2.688 5.32q-2.128-1.288-4.312-1.736a18.4 18.4 0 0 0-4.256-.504q-3.192 0-4.76.952-1.512.952-1.512 2.408 0 1.344 1.008 2.016t2.632 1.064q1.623.391 3.584.672 2.016.224 3.976.728a15.3 15.3 0 0 1 3.584 1.4 6.7 6.7 0 0 1 2.688 2.408q1.008 1.568 1.008 4.088 0 2.8-1.68 4.872-1.624 2.072-4.648 3.248-3.024 1.12-7.224 1.12m31.116 0q-4.928 0-7.616-2.52-2.688-2.575-2.688-7.56V56.488h7v26.656q0 2.128 1.064 3.304 1.12 1.176 3.08 1.176 2.352 0 3.92-1.232l1.96 4.984q-1.232 1.008-3.024 1.512a13.6 13.6 0 0 1-3.696.504M184.706 68.92v-5.6h19.936v5.6zm41.062 24.472q-4.985 0-8.736-1.96-3.696-2.016-5.768-5.488-2.016-3.473-2.016-7.896 0-4.48 1.96-7.896 2.016-3.472 5.488-5.432 3.528-1.96 8.008-1.96 4.368 0 7.784 1.904t5.376 5.376 1.96 8.176q0 .449-.056 1.008 0 .56-.056 1.064h-24.92V75.64h21.224l-2.744 1.456q.056-2.576-1.064-4.536a8.13 8.13 0 0 0-3.08-3.08q-1.904-1.12-4.424-1.12-2.576 0-4.536 1.12-1.904 1.12-3.024 3.136-1.064 1.96-1.064 4.648v1.12q0 2.688 1.232 4.76t3.472 3.192 5.152 1.12q2.52 0 4.536-.784t3.584-2.464l3.752 4.312q-2.016 2.352-5.096 3.64-3.024 1.232-6.944 1.232m33.716 0q-4.312 0-7.784-1.904a14.3 14.3 0 0 1-5.376-5.376q-1.96-3.416-1.96-8.064 0-4.649 1.96-8.064t5.376-5.32q3.472-1.904 7.784-1.904 3.752 0 6.72 1.68 2.969 1.624 4.704 4.984 1.736 3.36 1.736 8.624 0 5.208-1.68 8.624-1.68 3.36-4.648 5.04t-6.832 1.68m.84-5.992q2.52 0 4.48-1.12 2.016-1.12 3.192-3.248 1.232-2.128 1.232-4.984 0-2.912-1.232-4.984-1.176-2.128-3.192-3.248-1.96-1.12-4.48-1.12t-4.536 1.12q-1.96 1.12-3.192 3.248-1.176 2.072-1.176 4.984 0 2.856 1.176 4.984 1.231 2.128 3.192 3.248 2.016 1.12 4.536 1.12m9.072 5.6v-7.056l.28-7.952-.56-7.952V51.448h6.944V93zm45.354.392q-4.593 0-8.176-1.96-3.585-2.016-5.656-5.488-2.072-3.473-2.072-7.896 0-4.48 2.072-7.896 2.071-3.472 5.656-5.432 3.583-1.96 8.176-1.96 4.647 0 8.232 1.96 3.64 1.96 5.656 5.376 2.072 3.416 2.072 7.952 0 4.424-2.072 7.896-2.017 3.472-5.656 5.488-3.585 1.96-8.232 1.96m0-5.992q2.576 0 4.592-1.12t3.136-3.248q1.176-2.128 1.176-4.984 0-2.912-1.176-4.984-1.12-2.128-3.136-3.248t-4.536-1.12q-2.577 0-4.592 1.12-1.96 1.12-3.136 3.248-1.176 2.072-1.176 4.984 0 2.856 1.176 4.984t3.136 3.248q2.016 1.12 4.536 1.12m39.902-24.64q3.584 0 6.384 1.4 2.856 1.4 4.48 4.312 1.623 2.856 1.624 7.392V93h-7V76.76q0-3.976-1.904-5.936-1.848-1.96-5.208-1.96-2.464 0-4.368 1.008t-2.968 3.024q-1.008 1.96-1.008 4.984V93h-7V63.096h6.664v8.064l-1.176-2.464q1.567-2.856 4.536-4.368 3.023-1.568 6.944-1.568"
	/>
</svg>
