<svg xmlns="http://www.w3.org/2000/svg" width="1532" height="650" fill="none" viewBox="0 0 1532 650"><g opacity=".6"><path stroke="#A98" stroke-linecap="round" stroke-linejoin="round" stroke-width="2" d="M1494 162V66h-96l-96 96h192ZM1206 66v96h96l-96-96ZM1302 162v192l96-96v-96h-96Z"/><path stroke="#D35" stroke-linejoin="round" stroke-width="2" d="M893.196 154.804A111.999 111.999 0 0 1 814 346c-29.705 0-58.192-11.8-79.196-32.804l158.392-158.392Z"/><path stroke="#D35" stroke-linejoin="round" stroke-width="2" d="M893.196 154.804a112 112 0 0 0-158.392 158.392l158.392-158.392Z"/><path stroke="#A98" stroke-linejoin="round" stroke-width="2" d="m395.2 43.56 193.6 193.6H395.2V43.56Z"/><path stroke="#A98" stroke-linejoin="round" stroke-width="2" d="M395.2 4.84h116.16c42.769 0 77.44 34.671 77.44 77.44s-34.671 77.44-77.44 77.44L395.2 43.56V4.84Z"/><path stroke="#2DC" stroke-linejoin="round" stroke-width="2" d="M6.62 149.62h317.76l-79.44 79.44H86.06L6.62 149.62ZM165.5 308.5 6.62 149.62v317.76L165.5 308.5Z"/><path stroke="#4D4E4E" stroke-linejoin="round" stroke-width="2" d="M972 586.5c0 33.137 26.863 60 60 60h62.5v-60H972ZM972 586.5c0-33.137 26.863-60 60-60h62.5v60H972ZM1223.69 542.306A62.466 62.466 0 0 1 1242 586.5a62.466 62.466 0 0 1-18.31 44.194A62.482 62.482 0 0 1 1179.5 649a62.482 62.482 0 0 1-44.19-18.306l88.38-88.388Z"/><path stroke="#4D4E4E" stroke-linejoin="round" stroke-width="2" d="M1223.69 542.306A62.482 62.482 0 0 0 1179.5 524a62.482 62.482 0 0 0-44.19 18.306A62.466 62.466 0 0 0 1117 586.5a62.466 62.466 0 0 0 18.31 44.194l88.38-88.388Z"/><path stroke="#4D4E4E" stroke-linecap="round" stroke-linejoin="round" stroke-width="2" d="M1384.5 646.5v-120h-60v60l60 60ZM1264.5 526.5v120h60v-60l-60-60Z"/><path stroke="#4D4E4E" stroke-linejoin="round" stroke-width="2" d="M1409.5 526.5h120l-30 30h-60l-30-30ZM1469.5 586.5l-60-60v120l60-60Z"/><path stroke="#F6AD39" stroke-linecap="round" stroke-linejoin="round" stroke-width="2" d="M1117 473V233H997v120l120 120ZM877 233v240h120V353L877 233Z"/></g></svg>
