<svg xmlns="http://www.w3.org/2000/svg" width="390" height="615" fill="none" viewBox="0 0 390 615"><g opacity=".6"><path fill="#F0F3F2" d="M26.752 250v-2.544l5.064-5.112c2.232-2.28 2.784-2.904 2.784-4.248 0-1.2-.6-2.424-2.328-2.424-1.896 0-2.472 1.368-2.496 2.976H26.8c0-3.648 2.28-5.808 5.472-5.808 3.672 0 5.448 2.496 5.448 5.136 0 2.472-1.2 3.84-3.552 6.12l-3.192 3.072h6.72V250H26.752Zm20.523.36c-3.504 0-5.736-1.968-5.736-5.736v-6.048c0-3.768 2.232-5.736 5.736-5.736 3.528 0 5.76 1.968 5.76 5.736v6.048c0 3.768-2.232 5.736-5.76 5.736Zm-2.616-11.952v5.616l4.368-7.8c-.432-.336-1.008-.552-1.752-.552-1.776 0-2.616 1.2-2.616 2.736Zm2.616 9.12c1.8 0 2.64-1.2 2.64-2.736v-5.544l-4.368 7.728c.408.36.984.552 1.728.552ZM56.471 250v-2.544l5.064-5.112c2.232-2.28 2.784-2.904 2.784-4.248 0-1.2-.6-2.424-2.328-2.424-1.896 0-2.472 1.368-2.496 2.976h-2.976c0-3.648 2.28-5.808 5.472-5.808 3.672 0 5.448 2.496 5.448 5.136 0 2.472-1.2 3.84-3.552 6.12l-3.192 3.072h6.72V250H56.47Zm21.531 0v-3.096h-7.248v-2.4l5.568-11.304h2.736v1.128l-4.776 9.744h3.72v-3.936h3.12v3.936h1.896v2.832h-1.896V250h-3.12Zm18.868 0v-1.128l5.808-15.672h3.336l5.832 15.672V250h-3.36l-1.344-3.936h-5.736L100.014 250H96.87Zm5.544-6.768h3.696l-1.824-5.472-1.872 5.472ZM114.393 250v-16.8h3.408v13.824h7.68V250h-11.088Zm14.58 0v-13.824h-4.728V233.2h12.84v2.976h-4.704V250h-3.408Zm10.662 0v-16.8h10.944v2.976h-7.536v3.984h6.432v2.832h-6.432v4.032h7.584V250h-10.992ZM27.112 278v-16.8h7.512c3.024 0 4.824 2.064 4.824 5.304 0 3.216-1.8 5.28-4.824 5.28H30.52V278h-3.408Zm3.408-9.192H34c1.008 0 1.992-.696 1.992-2.328 0-1.608-.984-2.304-1.992-2.304h-3.48v4.632ZM39.705 278v-1.128l5.808-15.672h3.336l5.832 15.672V278h-3.36l-1.344-3.936h-5.736L42.85 278h-3.144Zm5.544-6.768h3.696l-1.824-5.472-1.872 5.472ZM57.23 278v-16.8h7.512c3.024 0 4.824 2.064 4.824 5.304 0 3.216-1.8 5.28-4.824 5.28h-4.104V278H57.23Zm3.408-9.192h3.48c1.008 0 1.992-.696 1.992-2.328 0-1.608-.984-2.304-1.992-2.304h-3.48v4.632ZM72.697 278v-16.8h3.409V278h-3.408Zm7.642 0v-16.8h10.944v2.976h-7.536v3.984h6.432v2.832h-6.432v4.032h7.584V278H80.339Zm14.25 0v-16.8h7.272c3.432 0 5.208 1.968 5.208 5.232 0 2.376-1.104 4.032-2.76 4.848l3.096 5.592V278h-3.312l-3.504-6.312h-2.592V278h-3.408Zm3.408-9.192h3.24c1.488 0 2.352-.624 2.352-2.328 0-1.68-.864-2.304-2.352-2.304h-3.24v4.632Zm12.81 9.192v-16.8h11.136v2.976h-7.728v4.2h6.576v2.832h-6.576V278h-3.408Zm12.477 0v-1.128l5.808-15.672h3.336l5.832 15.672V278h-3.36l-1.344-3.936h-5.736L126.428 278h-3.144Zm5.544-6.768h3.696l-1.824-5.472-1.872 5.472ZM140.807 278v-16.8h7.104c3.048 0 4.968 1.56 4.968 4.632 0 1.632-.624 2.76-1.872 3.456 1.392.6 2.544 1.656 2.544 3.984 0 3.168-1.896 4.728-4.968 4.728h-7.776Zm3.408-9.816h3.504c.888 0 1.728-.6 1.728-2.016 0-1.392-.84-1.992-1.728-1.992h-3.504v4.008Zm0 6.84h4.2c.888 0 1.728-.6 1.728-2.016 0-1.392-.84-1.992-1.728-1.992h-4.2v4.008Zm12.6 2.976v-16.8h7.272c3.432 0 5.208 1.968 5.208 5.232 0 2.376-1.104 4.032-2.76 4.848l3.096 5.592V278h-3.312l-3.504-6.312h-2.592V278h-3.408Zm3.408-9.192h3.24c1.488 0 2.352-.624 2.352-2.328 0-1.68-.864-2.304-2.352-2.304h-3.24v4.632ZM173.034 278v-16.8h3.408V278h-3.408Zm7.641 0v-16.8h3.408v6.912h1.776l4.056-6.912h3.168v1.128l-4.248 7.08 4.608 7.464V278h-3.384l-4.2-6.912h-1.776V278h-3.408ZM26.752 306v-2.544l5.064-5.112c2.232-2.28 2.784-2.904 2.784-4.248 0-1.2-.6-2.424-2.328-2.424-1.896 0-2.472 1.368-2.496 2.976H26.8c0-3.648 2.28-5.808 5.472-5.808 3.672 0 5.448 2.496 5.448 5.136 0 2.472-1.2 3.84-3.552 6.12l-3.192 3.072h6.72V306H26.752Zm20.403-17.16c3.552 0 5.88 2.136 5.88 5.592 0 1.536-.504 3-1.632 4.8L47.107 306h-2.856v-1.128l3.264-5.016c-.432.072-.84.12-1.416.12-2.64 0-4.824-1.752-4.824-5.208 0-3.792 2.328-5.928 5.88-5.928Zm0 2.832c-1.824 0-2.76 1.152-2.76 2.904s.864 2.88 2.784 2.88c2.016 0 2.736-1.272 2.736-2.88 0-1.752-.936-2.904-2.76-2.904Zm10.456 8.232v-2.832h7.872v2.832H57.61Zm18.188 6.456c-3.528 0-5.76-2.136-5.808-5.88h3c.048 1.728 1.008 3.048 2.904 3.048 1.968 0 2.664-1.176 2.664-2.616 0-1.464-1.008-2.184-2.736-2.184h-1.056v-2.832h.84c1.488 0 2.496-.6 2.496-2.112 0-.912-.456-2.112-2.232-2.112-1.824 0-2.52 1.248-2.568 2.856h-2.976c0-3.648 2.136-5.688 5.52-5.688 3.456 0 5.304 2.064 5.304 4.656 0 1.752-.768 2.832-1.968 3.672 1.344.552 2.496 2.064 2.496 4.008 0 3.192-2.136 5.184-5.88 5.184Zm14.86 0c-3.505 0-5.737-1.968-5.737-5.736v-6.048c0-3.768 2.232-5.736 5.736-5.736 3.528 0 5.76 1.968 5.76 5.736v6.048c0 3.768-2.232 5.736-5.76 5.736Zm-2.617-11.952v5.616l4.368-7.8c-.432-.336-1.008-.552-1.752-.552-1.776 0-2.616 1.2-2.616 2.736Zm2.616 9.12c1.8 0 2.64-1.2 2.64-2.736v-5.544l-4.368 7.728c.408.36.984.552 1.728.552ZM104.16 306v-1.128l5.808-15.672h3.336l5.832 15.672V306h-3.36l-1.344-3.936h-5.736L107.303 306h-3.144Zm5.544-6.768h3.696l-1.824-5.472-1.872 5.472Zm21.291-10.032h3.432v11.28c0 3.72-2.52 5.88-6.48 5.88-3.96 0-6.504-2.16-6.504-5.88V289.2h3.408v11.424c0 1.344.936 2.616 3.096 2.616 2.136 0 3.048-1.272 3.048-2.616V289.2Zm13.063 17.16c-3.864 0-6.144-2.256-6.144-5.976v-5.496c0-3.816 2.472-6.048 6.696-6.048 3.624 0 6.384 1.992 6.384 5.832h-3.408c0-1.704-1.296-2.712-3.168-2.712-2.088 0-3.096 1.08-3.096 2.784v5.616c0 1.824 1.08 2.88 3.048 2.88 1.296 0 2.568-.648 3.216-1.656v-1.824h-2.976v-2.832h6.384V306h-1.824l-.936-1.392c-1.032 1.152-2.496 1.752-4.176 1.752Z"/><path stroke="#4D4E4E" stroke-linejoin="round" stroke-width="2" d="M21 578c0 19.087 15.473 34.56 34.56 34.56h36V578H21ZM21 578c0-19.087 15.473-34.56 34.56-34.56h36V578H21ZM174.456 552.544a36 36 0 0 1-50.912 50.912l50.912-50.912Z"/><path stroke="#4D4E4E" stroke-linejoin="round" stroke-width="2" d="M174.456 552.544a36 36 0 0 0-50.912 50.912l50.912-50.912Z"/><path stroke="#4D4E4E" stroke-linecap="round" stroke-linejoin="round" stroke-width="2" d="M275.56 612.56v-69.12H241V578l34.56 34.56ZM206.44 543.44v69.12H241V578l-34.56-34.56Z"/><path stroke="#4D4E4E" stroke-linejoin="round" stroke-width="2" d="M298.44 543.44h69.12l-17.28 17.28h-34.56l-17.28-17.28Z"/><path stroke="#4D4E4E" stroke-linejoin="round" stroke-width="2" d="m333 578-34.56-34.56v69.12L333 578Z"/><path stroke="#A98" stroke-linecap="round" stroke-linejoin="round" d="M371 288v-48h-48l-48 48h96ZM227 240v48h48l-48-48ZM275 288v96l48-48v-48h-48Z"/><path stroke="#F6AD39" stroke-linecap="round" stroke-linejoin="round" d="M427.5 267.5v-120h-60v60l60 60ZM307.5 147.5v120h60v-60l-60-60Z"/><path stroke="#D35" stroke-linejoin="round" d="M330.598 99.402a56 56 0 0 1-79.196 79.196l79.196-79.196Z"/><path stroke="#D35" stroke-linejoin="round" d="M330.598 99.402a56 56 0 0 0-79.196 79.196l79.196-79.196Z"/><path stroke="#A98" stroke-linejoin="round" d="m201.1 21.78 96.8 96.8h-96.8v-96.8Z"/><path stroke="#A98" stroke-linejoin="round" d="M201.1 2.42h58.08c21.385 0 38.72 17.336 38.72 38.72s-17.335 38.72-38.72 38.72L201.1 21.78V2.42Z"/><path stroke="#2DC" stroke-linejoin="round" d="M-11.69 117.81h158.88l-39.72 39.72H28.03l-39.72-39.72ZM67.75 197.25l-79.44-79.44v158.88l79.44-79.44Z"/></g></svg>