<svg xmlns="http://www.w3.org/2000/svg" width="390" height="615" fill="none" viewBox="0 0 390 615"><g opacity=".6"><path stroke="#4D4E4E" stroke-linejoin="round" stroke-width="2" d="M21 578c0 19.087 15.473 34.56 34.56 34.56h36V578H21ZM21 578c0-19.087 15.473-34.56 34.56-34.56h36V578H21ZM174.456 552.544a36 36 0 0 1-50.912 50.912l50.912-50.912Z"/><path stroke="#4D4E4E" stroke-linejoin="round" stroke-width="2" d="M174.456 552.544a36 36 0 0 0-50.912 50.912l50.912-50.912Z"/><path stroke="#4D4E4E" stroke-linecap="round" stroke-linejoin="round" stroke-width="2" d="M275.56 612.56v-69.12H241V578l34.56 34.56ZM206.44 543.44v69.12H241V578l-34.56-34.56Z"/><path stroke="#4D4E4E" stroke-linejoin="round" stroke-width="2" d="M298.44 543.44h69.12l-17.28 17.28h-34.56l-17.28-17.28Z"/><path stroke="#4D4E4E" stroke-linejoin="round" stroke-width="2" d="m333 578-34.56-34.56v69.12L333 578Z"/><path stroke="#A98" stroke-linecap="round" stroke-linejoin="round" d="M371 288v-48h-48l-48 48h96ZM227 240v48h48l-48-48ZM275 288v96l48-48v-48h-48Z"/><path stroke="#F6AD39" stroke-linecap="round" stroke-linejoin="round" d="M427.5 267.5v-120h-60v60l60 60ZM307.5 147.5v120h60v-60l-60-60Z"/><path stroke="#D35" stroke-linejoin="round" d="M330.598 99.402a56 56 0 0 1-79.196 79.196l79.196-79.196Z"/><path stroke="#D35" stroke-linejoin="round" d="M330.598 99.402a56 56 0 0 0-79.196 79.196l79.196-79.196Z"/><path stroke="#A98" stroke-linejoin="round" d="m201.1 21.78 96.8 96.8h-96.8v-96.8Z"/><path stroke="#A98" stroke-linejoin="round" d="M201.1 2.42h58.08c21.385 0 38.72 17.336 38.72 38.72s-17.335 38.72-38.72 38.72L201.1 21.78V2.42Z"/><path stroke="#2DC" stroke-linejoin="round" d="M-11.69 117.81h158.88l-39.72 39.72H28.03l-39.72-39.72ZM67.75 197.25l-79.44-79.44v158.88l79.44-79.44Z"/></g></svg>
