<svg xmlns="http://www.w3.org/2000/svg" width="1532" height="650" fill="none" viewBox="0 0 1532 650"><g opacity=".6"><path stroke="#A98" stroke-linecap="round" stroke-linejoin="round" stroke-width="2" d="M1494 162V66h-96l-96 96h192ZM1206 66v96h96l-96-96ZM1302 162v192l96-96v-96h-96Z"/><path stroke="#D35" stroke-linejoin="round" stroke-width="2" d="M893.196 154.804A111.999 111.999 0 0 1 814 346c-29.705 0-58.192-11.8-79.196-32.804l158.392-158.392Z"/><path stroke="#D35" stroke-linejoin="round" stroke-width="2" d="M893.196 154.804a112 112 0 0 0-158.392 158.392l158.392-158.392Z"/><path stroke="#A98" stroke-linejoin="round" stroke-width="2" d="m395.2 43.56 193.6 193.6H395.2V43.56Z"/><path stroke="#A98" stroke-linejoin="round" stroke-width="2" d="M395.2 4.84h116.16c42.769 0 77.44 34.671 77.44 77.44s-34.671 77.44-77.44 77.44L395.2 43.56V4.84Z"/><path fill="#F0F3F2" d="M392.752 300v-2.544l5.064-5.112c2.232-2.28 2.784-2.904 2.784-4.248 0-1.2-.6-2.424-2.328-2.424-1.896 0-2.472 1.368-2.496 2.976H392.8c0-3.648 2.28-5.808 5.472-5.808 3.672 0 5.448 2.496 5.448 5.136 0 2.472-1.2 3.84-3.552 6.12l-3.192 3.072h6.72V300h-10.944Zm20.523.36c-3.504 0-5.736-1.968-5.736-5.736v-6.048c0-3.768 2.232-5.736 5.736-5.736 3.528 0 5.76 1.968 5.76 5.736v6.048c0 3.768-2.232 5.736-5.76 5.736Zm-2.616-11.952v5.616l4.368-7.8c-.432-.336-1.008-.552-1.752-.552-1.776 0-2.616 1.2-2.616 2.736Zm2.616 9.12c1.8 0 2.64-1.2 2.64-2.736v-5.544l-4.368 7.728c.408.36.984.552 1.728.552Zm9.196 2.472v-2.544l5.064-5.112c2.232-2.28 2.784-2.904 2.784-4.248 0-1.2-.6-2.424-2.328-2.424-1.896 0-2.472 1.368-2.496 2.976h-2.976c0-3.648 2.28-5.808 5.472-5.808 3.672 0 5.448 2.496 5.448 5.136 0 2.472-1.2 3.84-3.552 6.12l-3.192 3.072h6.72V300h-10.944Zm21.531 0v-3.096h-7.248v-2.4l5.568-11.304h2.736v1.128l-4.776 9.744h3.72v-3.936h3.12v3.936h1.896v2.832h-1.896V300h-3.12Zm18.868 0v-1.128l5.808-15.672h3.336l5.832 15.672V300h-3.36l-1.344-3.936h-5.736L466.014 300h-3.144Zm5.544-6.768h3.696l-1.824-5.472-1.872 5.472ZM480.393 300v-16.8h3.408v13.824h7.68V300h-11.088Zm14.58 0v-13.824h-4.728V283.2h12.84v2.976h-4.704V300h-3.408Zm10.662 0v-16.8h10.944v2.976h-7.536v3.984h6.432v2.832h-6.432v4.032h7.584V300h-10.992Zm-112.523 28v-16.8h7.512c3.024 0 4.824 2.064 4.824 5.304 0 3.216-1.8 5.28-4.824 5.28h-4.104V328h-3.408Zm3.408-9.192H400c1.008 0 1.992-.696 1.992-2.328 0-1.608-.984-2.304-1.992-2.304h-3.48v4.632Zm9.185 9.192v-1.128l5.808-15.672h3.336l5.832 15.672V328h-3.36l-1.344-3.936h-5.736L408.849 328h-3.144Zm5.544-6.768h3.696l-1.824-5.472-1.872 5.472Zm11.98 6.768v-16.8h7.512c3.024 0 4.824 2.064 4.824 5.304 0 3.216-1.8 5.28-4.824 5.28h-4.104V328h-3.408Zm3.408-9.192h3.48c1.008 0 1.992-.696 1.992-2.328 0-1.608-.984-2.304-1.992-2.304h-3.48v4.632ZM438.698 328v-16.8h3.408V328h-3.408Zm7.641 0v-16.8h10.944v2.976h-7.536v3.984h6.432v2.832h-6.432v4.032h7.584V328h-10.992Zm14.25 0v-16.8h7.272c3.432 0 5.208 1.968 5.208 5.232 0 2.376-1.104 4.032-2.76 4.848l3.096 5.592V328h-3.312l-3.504-6.312h-2.592V328h-3.408Zm3.408-9.192h3.24c1.488 0 2.352-.624 2.352-2.328 0-1.68-.864-2.304-2.352-2.304h-3.24v4.632Zm12.81 9.192v-16.8h11.136v2.976h-7.728v4.2h6.576v2.832h-6.576V328h-3.408Zm12.477 0v-1.128l5.808-15.672h3.336l5.832 15.672V328h-3.36l-1.344-3.936h-5.736L492.428 328h-3.144Zm5.544-6.768h3.696l-1.824-5.472-1.872 5.472ZM506.807 328v-16.8h7.104c3.048 0 4.968 1.56 4.968 4.632 0 1.632-.624 2.76-1.872 3.456 1.392.6 2.544 1.656 2.544 3.984 0 3.168-1.896 4.728-4.968 4.728h-7.776Zm3.408-9.816h3.504c.888 0 1.728-.6 1.728-2.016 0-1.392-.84-1.992-1.728-1.992h-3.504v4.008Zm0 6.84h4.2c.888 0 1.728-.6 1.728-2.016 0-1.392-.84-1.992-1.728-1.992h-4.2v4.008Zm12.6 2.976v-16.8h7.272c3.432 0 5.208 1.968 5.208 5.232 0 2.376-1.104 4.032-2.76 4.848l3.096 5.592V328h-3.312l-3.504-6.312h-2.592V328h-3.408Zm3.408-9.192h3.24c1.488 0 2.352-.624 2.352-2.328 0-1.68-.864-2.304-2.352-2.304h-3.24v4.632ZM539.034 328v-16.8h3.408V328h-3.408Zm7.641 0v-16.8h3.408v6.912h1.776l4.056-6.912h3.168v1.128l-4.248 7.08 4.608 7.464V328h-3.384l-4.2-6.912h-1.776V328h-3.408Zm-153.923 28v-2.544l5.064-5.112c2.232-2.28 2.784-2.904 2.784-4.248 0-1.2-.6-2.424-2.328-2.424-1.896 0-2.472 1.368-2.496 2.976H392.8c0-3.648 2.28-5.808 5.472-5.808 3.672 0 5.448 2.496 5.448 5.136 0 2.472-1.2 3.84-3.552 6.12l-3.192 3.072h6.72V356h-10.944Zm20.403-17.16c3.552 0 5.88 2.136 5.88 5.592 0 1.536-.504 3-1.632 4.8L413.107 356h-2.856v-1.128l3.264-5.016c-.432.072-.84.12-1.416.12-2.64 0-4.824-1.752-4.824-5.208 0-3.792 2.328-5.928 5.88-5.928Zm0 2.832c-1.824 0-2.76 1.152-2.76 2.904s.864 2.88 2.784 2.88c2.016 0 2.736-1.272 2.736-2.88 0-1.752-.936-2.904-2.76-2.904Zm10.456 8.232v-2.832h7.872v2.832h-7.872Zm18.188 6.456c-3.528 0-5.76-2.136-5.808-5.88h3c.048 1.728 1.008 3.048 2.904 3.048 1.968 0 2.664-1.176 2.664-2.616 0-1.464-1.008-2.184-2.736-2.184h-1.056v-2.832h.84c1.488 0 2.496-.6 2.496-2.112 0-.912-.456-2.112-2.232-2.112-1.824 0-2.52 1.248-2.568 2.856h-2.976c0-3.648 2.136-5.688 5.52-5.688 3.456 0 5.304 2.064 5.304 4.656 0 1.752-.768 2.832-1.968 3.672 1.344.552 2.496 2.064 2.496 4.008 0 3.192-2.136 5.184-5.88 5.184Zm14.859 0c-3.504 0-5.736-1.968-5.736-5.736v-6.048c0-3.768 2.232-5.736 5.736-5.736 3.528 0 5.76 1.968 5.76 5.736v6.048c0 3.768-2.232 5.736-5.76 5.736Zm-2.616-11.952v5.616l4.368-7.8c-.432-.336-1.008-.552-1.752-.552-1.776 0-2.616 1.2-2.616 2.736Zm2.616 9.12c1.8 0 2.64-1.2 2.64-2.736v-5.544l-4.368 7.728c.408.36.984.552 1.728.552ZM470.159 356v-1.128l5.808-15.672h3.336l5.832 15.672V356h-3.36l-1.344-3.936h-5.736L473.303 356h-3.144Zm5.544-6.768h3.696l-1.824-5.472-1.872 5.472Zm21.291-10.032h3.432v11.28c0 3.72-2.52 5.88-6.48 5.88-3.96 0-6.504-2.16-6.504-5.88V339.2h3.408v11.424c0 1.344.936 2.616 3.096 2.616 2.136 0 3.048-1.272 3.048-2.616V339.2Zm13.063 17.16c-3.864 0-6.144-2.256-6.144-5.976v-5.496c0-3.816 2.472-6.048 6.696-6.048 3.624 0 6.384 1.992 6.384 5.832h-3.408c0-1.704-1.296-2.712-3.168-2.712-2.088 0-3.096 1.08-3.096 2.784v5.616c0 1.824 1.08 2.88 3.048 2.88 1.296 0 2.568-.648 3.216-1.656v-1.824h-2.976v-2.832h6.384V356h-1.824l-.936-1.392c-1.032 1.152-2.496 1.752-4.176 1.752Z"/><path stroke="#2DC" stroke-linejoin="round" stroke-width="2" d="M6.62 149.62h317.76l-79.44 79.44H86.06L6.62 149.62ZM165.5 308.5 6.62 149.62v317.76L165.5 308.5Z"/><path stroke="#4D4E4E" stroke-linejoin="round" stroke-width="2" d="M972 586.5c0 33.137 26.863 60 60 60h62.5v-60H972ZM972 586.5c0-33.137 26.863-60 60-60h62.5v60H972ZM1223.69 542.306A62.466 62.466 0 0 1 1242 586.5a62.466 62.466 0 0 1-18.31 44.194A62.482 62.482 0 0 1 1179.5 649a62.482 62.482 0 0 1-44.19-18.306l88.38-88.388Z"/><path stroke="#4D4E4E" stroke-linejoin="round" stroke-width="2" d="M1223.69 542.306A62.482 62.482 0 0 0 1179.5 524a62.482 62.482 0 0 0-44.19 18.306A62.466 62.466 0 0 0 1117 586.5a62.466 62.466 0 0 0 18.31 44.194l88.38-88.388Z"/><path stroke="#4D4E4E" stroke-linecap="round" stroke-linejoin="round" stroke-width="2" d="M1384.5 646.5v-120h-60v60l60 60ZM1264.5 526.5v120h60v-60l-60-60Z"/><path stroke="#4D4E4E" stroke-linejoin="round" stroke-width="2" d="M1409.5 526.5h120l-30 30h-60l-30-30ZM1469.5 586.5l-60-60v120l60-60Z"/><path stroke="#F6AD39" stroke-linecap="round" stroke-linejoin="round" stroke-width="2" d="M1117 473V233H997v120l120 120ZM877 233v240h120V353L877 233Z"/></g></svg>